<?xml version="1.0" encoding="iso-8859-1"?>
<!-- Generator: Adobe Illustrator 19.0.0, SVG Export Plug-In . SVG Version: 6.00 Build 0)  -->
<svg version="1.1" id="Layer_1" xmlns="http://www.w3.org/2000/svg" xmlns:xlink="http://www.w3.org/1999/xlink" x="0px" y="0px"
	 viewBox="0 0 512 512" style="enable-background:new 0 0 512 512;" xml:space="preserve">
<path style="fill:#F2F2F2;" d="M117.567,0l8.967,106.796l29.864,355.386c0.986,11.751,10.813,20.787,22.606,20.787h2.38h149.232l0,0
	c13.131,0,24.071-10.06,25.17-23.144l28.526-339.475L394.433,0H117.567z"/>
<path style="fill:#68B9DA;" d="M340.112,476.361v16.501c0,10.57-8.569,19.138-19.138,19.138H191.027
	c-10.57,0-19.138-8.569-19.138-19.138v-16.501H340.112z"/>
<path style="fill:#80D2EE;" d="M384.312,120.348l-28.525,339.475c-1.099,13.085-12.04,23.144-25.17,23.144l0,0H181.386h-2.38
	c-11.792,0-21.618-9.035-22.606-20.787l-29.865-355.386l0.57-0.054c42.789,0,42.789,13.567,85.564,13.567
	c42.789,0,42.789-13.567,85.578-13.567s42.789,13.567,85.564,13.567L384.312,120.348z"/>
<path style="fill:#E6E6E6;" d="M186.051,117.947l16.687,365.02h-23.733c-11.792,0-21.618-9.035-22.606-20.787l-29.864-355.386
	L117.567,0h63.084l4.884,106.796L186.051,117.947z"/>
<g>
	<path style="fill:#68B9DA;" d="M186.051,117.947l16.687,365.02h-23.733c-11.792,0-21.618-9.035-22.606-20.787l-29.864-355.386
		l0.57-0.054C158.538,106.741,166.882,114.067,186.051,117.947z"/>
	<path style="fill:#68B9DA;" d="M206.075,241.345c-15.34,0-27.819-12.48-27.819-27.819s12.48-27.819,27.819-27.819
		s27.819,12.48,27.819,27.819S221.415,241.345,206.075,241.345z M206.075,197.916c-8.607,0-15.61,7.003-15.61,15.61
		s7.003,15.61,15.61,15.61s15.61-7.003,15.61-15.61S214.682,197.916,206.075,197.916z"/>
	<circle style="fill:#68B9DA;" cx="294.949" cy="294.258" r="10.175"/>
	<circle style="fill:#68B9DA;" cx="274.993" cy="164.697" r="10.175"/>
	<circle style="fill:#68B9DA;" cx="237.97" cy="363.786" r="10.175"/>
</g>
<g>
</g>
<g>
</g>
<g>
</g>
<g>
</g>
<g>
</g>
<g>
</g>
<g>
</g>
<g>
</g>
<g>
</g>
<g>
</g>
<g>
</g>
<g>
</g>
<g>
</g>
<g>
</g>
<g>
</g>
</svg>
