<?xml version="1.0" encoding="iso-8859-1"?>
<!-- Generator: Adobe Illustrator 19.0.0, SVG Export Plug-In . SVG Version: 6.00 Build 0)  -->
<svg version="1.1" id="Capa_1" xmlns="http://www.w3.org/2000/svg" xmlns:xlink="http://www.w3.org/1999/xlink" x="0px" y="0px"
	 viewBox="0 0 362.057 362.057" style="enable-background:new 0 0 362.057 362.057;" xml:space="preserve">
<path style="fill:#D4E1F4;" d="M56.9,0C50.63,0,45.928,5.747,46.451,12.016l17.241,129.045h0.522l0,0c2.612,0,4.702,0,6.792,0
	c2.09,0,4.18,0.522,6.269,0.522c7.837,1.045,13.584,3.135,18.808,5.224c2.612,1.045,5.224,2.09,7.314,3.657
	c2.612,1.045,4.702,2.09,7.314,3.657c7.837,3.135,17.241,5.747,31.869,5.747c7.314,0,13.061-0.522,18.286-1.567
	c3.657-0.522,6.269-1.567,9.404-2.612c2.612-1.045,5.224-2.09,7.837-3.135s4.702-2.09,7.314-3.657
	c2.612-1.045,5.225-2.09,7.837-3.135c2.612-1.045,5.747-2.09,9.404-2.612c5.224-1.045,10.971-1.567,18.286-1.567
	c38.139,0,39.184,17.763,74.71,18.808l19.853-147.853c1.045-6.269-4.18-12.016-10.449-12.016H56.9V0z"/>
<path style="fill:#4DCFE0;" d="M202.663,142.629c-3.657,0.522-6.269,1.567-9.404,2.612c-2.612,1.045-5.224,2.09-7.837,3.135
	c-2.612,1.045-4.702,2.09-7.314,3.657c-2.612,1.045-5.225,2.09-7.837,3.135s-5.747,2.09-9.404,2.612
	c-5.225,1.045-10.971,1.567-18.286,1.567c-14.629,0-24.033-2.612-31.869-5.747c-2.612-1.045-5.224-2.09-7.314-3.657
	c-2.612-1.045-4.702-2.09-7.314-3.657c-5.224-2.09-10.971-4.18-18.808-5.224c-2.09,0-4.18-0.522-6.269-0.522
	c-2.09,0-4.702,0-6.792,0l0,0h-0.522l28.212,207.935c1.045,7.837,7.837,13.584,15.673,13.584h147.331
	c7.837,0,14.629-5.747,15.673-13.584l25.6-188.604c-35.527-1.045-37.094-18.808-74.71-18.808
	C213.635,141.061,207.888,141.584,202.663,142.629z"/>
<g>
</g>
<g>
</g>
<g>
</g>
<g>
</g>
<g>
</g>
<g>
</g>
<g>
</g>
<g>
</g>
<g>
</g>
<g>
</g>
<g>
</g>
<g>
</g>
<g>
</g>
<g>
</g>
<g>
</g>
</svg>
