<svg height="462pt" viewBox="-127 0 462 462" width="462pt" xmlns="http://www.w3.org/2000/svg"><path d="m208.859375 342.78125v79.21875c-.0625 22.066406-17.933594 39.933594-40 40h-128.859375c-22.066406-.066406-39.9335938-17.933594-40-40v-79.21875zm0 0" fill="#00efd1"/><path d="m208.859375 213.578125v129.203125h-208.859375v-129.203125zm0 0" fill="#00acea"/><path d="m208.859375 181.398438v32.179687h-208.859375v-32.179687c0-32.769532 19.96875-62.570313 49.671875-74.488282v-37.25h109.519531v37.25c14.785156 5.867188 27.410156 16.144532 36.160156 29.429688 8.828126 13.367187 13.527344 29.039062 13.507813 45.058594zm0 0" fill="#00efd1"/><path d="m49.671875 69.660156h-9.941406v-59.660156c0-5.523438 4.476562-10 10-10h109.398437c5.523438 0 10 4.476562 10 10v59.660156zm0 0" fill="#00acea"/></svg>